<svg data-name="Layer 1" xmlns="http://www.w3.org/2000/svg" viewBox="0 0 32 32">
    <circle cx="16" cy="16" r="16" style="fill:#c2e800"/>
    <path d="M18.78 28.34a9.8 9.8 0 0 1-3.08-2.61c-.14-.19-.25-.4-.31-.63-.21-1.02.32-2.09.43-3.09.02-.22 0-.44-.04-.66a15.6 15.6 0 0 1-.6-4.99c.04-.4-.02-.6-.43-.31-.12.07-.3.21-.33.09.19-.61.79-1.13 1.03-1.73q.165-.39.24-.81a9.66 9.66 0 0 1 3.08-5.1c1.21-1.11 2.53-3.36.98-4.6-.93-.66-2.18-.69-3.14-.08-.1.04-.27.17-.35.14-.18-.1.28-.7-.22-.59-5.89 2.23-8.76 9.1-6.6 14.98q.09.195.12.42c0 .03-.02.03-.04.03-.3-.12-.67-.5-.5.17.74 2.29 2.19 4.45 4.4 5.47.29.13.57.29.82.48 1.22 1.04 2.06 2.61 3.6 3.27.33.19.69.34 1.06.44.13.02.19 0 .19-.04-.04-.1-.2-.18-.3-.25Zm-6.21-7.19C9.78 16.5 11.32 9.02 15.62 6.49c-3.51 2.73-5.23 9.66-3.05 14.66" style="fill:#6b0f53"/>
</svg>
