<svg xmlns="http://www.w3.org/2000/svg" width="21.794" height="47" viewBox="0 0 21.794 47">
    <path id="Path_44" d="M371.873,197.937a18.22,18.22,0,0,1-5.728-4.85,3.512,3.512,0,0,1-.581-1.171c-.39-1.9.6-3.877.8-5.741a4.255,4.255,0,0,0-.078-1.229,29.084,29.084,0,0,1-1.113-9.275c.075-.735-.033-1.122-.8-.572-.232.134-.56.395-.607.158.358-1.127,1.47-2.091,1.914-3.207a7.684,7.684,0,0,0,.448-1.511,17.983,17.983,0,0,1,5.721-9.475c2.249-2.054,4.694-6.238,1.83-8.542a5.262,5.262,0,0,0-5.843-.155c-.184.082-.5.316-.65.259-.333-.186.523-1.309-.408-1.1-10.95,4.142-16.279,16.911-12.257,27.844a2.82,2.82,0,0,1,.224.78c-.006.047-.028.059-.067.065-.561-.225-1.237-.937-.935.325,1.382,4.257,4.064,8.269,8.169,10.161a7.409,7.409,0,0,1,1.531.889c2.265,1.926,3.832,4.842,6.693,6.075a7.855,7.855,0,0,0,1.965.821c.234.037.361.006.344-.078l-.006-.022C372.371,198.224,372.063,198.068,371.873,197.937Zm-11.536-13.369c-5.177-8.633-2.321-22.547,5.664-27.252C359.482,162.384,356.286,175.266,360.338,184.568Z" transform="translate(-353.181 -151.499)" fill="currentColor"/>
    <style>
        path { fill: #000; }
        @media (prefers-color-scheme: dark) {
            path { fill: #FFF; }
        }
    </style>
</svg>
