<svg xmlns="http://www.w3.org/2000/svg" width="369.729" height="151.147" viewBox="0 0 369.729 151.147">
    <path d="M22.072,128.016c-11.286-.84-11.9-1.721-16.592-6.487A19.568,19.568,0,0,1,.653,102.991C1.84,98.675,4.5,94.885,5.743,90.585c2.629-9.1-1.423-18.6-3.578-27.824a70.035,70.035,0,0,1-.144-31.1c.9-4,2.3-8.164,5.494-10.74,4.544-3.669,11.086-2.988,16.867-2.141,9.188,1.35,18.894,2.585,27.5-.9,5.666-2.3,10.338-6.454,15.473-9.771C76.461,2.22,87.5-1.064,98.254.311s21.053,7.8,25.844,17.513c2.749,5.575,3.635,11.911,6.292,17.532s8.086,10.781,14.266,10.063c6.5-.754,10.405-7.261,15.063-11.845C166,27.386,174.629,24.247,183.1,21.8c8.068-2.33,16.975-4.148,24.651-.745,4.828,2.139,8.559,6.1,12.706,9.366,12.964,10.218,32.673,13.261,45.962,3.468,7.588-5.591,12.212-14.472,19.742-20.144,10.084-7.6,23.732-8.282,36.316-7.2,8.023.688,16.528,2.218,22.389,7.732,6.823,6.421,8.377,16.836,6.925,26.085-1.06,6.76-3.455,13.863-.9,20.21,1.347,3.345,3.923,6.014,6.212,8.8,8.591,10.467,13.716,24.106,12.419,37.579s-9.57,26.457-21.976,31.9c-12.321,5.41-26.61,3.06-39.526-.718s-25.749-8.94-39.207-8.921c-10.807.016-21.506,3.4-32.272,2.456-8.8-.772-17.067-4.388-25.68-6.338s-18.475-1.939-25.31,3.646c-3.367,2.751-5.648,6.579-8.534,9.83-11.03,12.426-30.293,15.048-46.046,9.738S102.533,131.353,92.13,118.4c-1.374-1.71-2.782-3.5-4.743-4.487a12.656,12.656,0,0,0-5.188-1.076c-4.505-.193-9.5.561-12.443,3.97-1.636,1.892-2.437,4.386-4.048,6.3-3.469,4.118-9.571,4.5-14.96,4.567Z" fill="#ebe6dd"/>
    <path d="M144.729,53.45c.206-17.439-9.4-25.711-14.808-25.775-2.553-.03-5.937,1.154-9.1,1.117-1.94-.023-6.622-1.3-8.562-1.326-6.943-.081-15.219,9-15.425,26.439-.133,11.218,4.557,20.453,4.49,26.062-.022,1.938-.471,5.3-.486,6.522-.065,5.507,6.66,6.811,17.891,6.943,15.009.177,19.736-2.317,19.794-7.213.038-3.161-.556-4.8-.518-7.961.079-6.731,6.623-16.038,6.727-24.808M121.2,60.707c.9-.644,1.024-.19.937.669a33.974,33.974,0,0,0,1.3,10.848,4.966,4.966,0,0,1,.091,1.438c-.23,2.179-1.388,4.487-.932,6.714a4.116,4.116,0,0,0,.681,1.37,21.331,21.331,0,0,0,6.708,5.672c.222.154.582.336.659.521l.008.026c.02.1-.13.135-.4.092a9.205,9.205,0,0,1-2.3-.96c-3.351-1.442-5.186-4.853-7.838-7.106a8.706,8.706,0,0,0-1.792-1.04c-4.807-2.213-7.948-6.906-9.566-11.884-.355-1.476.437-.643,1.094-.38.046-.006.072-.021.079-.075a3.291,3.291,0,0,0-.263-.913c-4.71-12.788,1.53-27.724,14.352-32.568,1.09-.241.088,1.072.479,1.29.179.066.545-.207.761-.3a6.167,6.167,0,0,1,6.842.182c3.354,2.695.49,7.589-2.143,9.991a21.028,21.028,0,0,0-6.7,11.083,8.989,8.989,0,0,1-.525,1.767c-.52,1.305-1.823,2.433-2.242,3.751.055.277.439-.029.711-.185" transform="translate(-29.376 -8.355)" fill="#e849be"/>
    <path d="M123.705,77.222c-4.745-10.88-1-25.948,6.632-31.876-9.351,5.5-12.7,21.778-6.632,31.876" transform="translate(-36.603 -13.794)" fill="#e849be"/>
    <path d="M383.857,101.662c-1.975-5.1-3.958-7.739-8.6-5.946-.133.052-.351.155-.63.3-10.918,5.546-22.157,5.368-26.151,5.086a7.594,7.594,0,0,0-1.523-.145c-1.374.063-2.086.692-1.994,2.677.376,8.237,1.87,13.142,7.994,12.863a6.63,6.63,0,0,0,4.339-1.62.823.823,0,0,0,.2-.041c.031-.083.063-.161.093-.242,3.2-3.24,3.156-9.613,10.432-11.23,5.513.008,10.671,6.993,12.687,12.2,1.794,4.633-.587,9.5-6.8,11.9-13.452,5.2-33.377,1.393-40.591-17.231-3.016-7.783.449-13.437,3.8-16.82,0,0,7.131-7.46,13.139-5.854.867.422,1.73.9,2.591,1.387.091.078.184.148.274.233L353,89.023c4.456,2.554,8.86,5.516,13.65,4.091,7.054-2.1,8.4-6.647,6.492-13.025-1.25-4.189-3.588-7.848-6.352-7.026-1.811.539-2.473,3.536-7.336,4.984-4.575,1.362-12.036,1.406-16.134,2.626a25,25,0,0,0-6.4,2.828,12.851,12.851,0,0,0-2.984,2.418,15.284,15.284,0,0,0-2.667,3.71c-4.279,7.623-5.684,20.208-.673,33.145,6.676,17.234,17.214,26.265,38.365,18.092,17.161-6.632,20.775-24.009,14.89-39.2" transform="translate(-99.33 -22.19)" fill="#e849be"/>
    <path d="M40.536,60.446c3.273-.245,6.815-.909,9.1-1.079A2.839,2.839,0,0,1,53.044,62.3c.357,4.756-13.548,6.892-13.3,15.442.2,2.675.849,6.015,1.05,8.689.49,10.524-5.413,14.254-4.782,22.676.46,6.143,5.374,9.162,12.516,8.627,6.448-.482,8.288-5.2,7.916-10.157-.387-5.152-5.762-14.315-6.2-20.16-.587-7.826,3.741-12.634,11.874-13.243,6.845-.512,9.843,3.547,10.251,9,.379,5.053-1.327,7.572-3.113,7.705-2.58.193-3.368-2.339-8.328-1.967-2.776.207-4.366,1.622-4.181,4.1.6,8.025,20.125,11.645,21.062,24.128.208,2.773-.451,4.617-3.13,4.817-2.876.216-13.9-.454-23.817.288-7.341.55-18.369,2.471-23.328,2.842-1.883.141-3.34-.646-3.5-2.826-.312-4.161,7.705-11.636,6.881-22.633-.728-9.709-8.8-17.573-9.636-30.065C21.006,64.7,24.246,61.367,29.206,61c3.068-.329,7.264-.245,11.331-.549" transform="translate(-6.448 -18.054)" fill="#e849be"/>
    <path d="M179.89,100.9c-2.092,7.565-17.96,16.074-20.952,26.9-1.243,4.5.514,8.593,6.747,10.312,11.027,3.041,20.454-4.564,24.134-17.876,3.149-11.4-4.276-19.628-3.27-23.268.477-1.724,1.875-2.677,4.081-2.069,1.726.476,6.851,2.1,10.686,3.153,2.685.74,8.107,2.029,11.75,3.034a2.528,2.528,0,0,1,1.847,3.395c-1.218,4.406-18.12,8.815-21.4,20.69-4.129,14.94,7,26.564,5.281,32.789-.741,2.682-3.73,4.537-10.251,2.739-6.711-1.851-8.739-3.853-7.654-7.779.582-2.107,2.081-4.168,2.716-6.466.5-1.82.229-3.441-2.167-4.1-3.452-.953-5.658,1.428-7.42,4.448-3.5,5.94-8.305,8.017-17.318,5.532-6.615-1.824-13.637-7.78-11.679-14.867,2.065-7.47,11.333-11.511,13.955-20.992,4.552-16.473-2.172-22.758-1.405-25.536.926-3.352,4.663-4.176,12.141-2.115,8.439,2.327,11.74,6.432,10.179,12.083" transform="translate(-43.895 -26.676)" fill="#e849be"/>
    <path d="M243.687,63.314c1.884.149,3.836.7,5.82.859,2.387.089,4.7-.127,6.386.007s2.284,1.377,2.143,3.159c-.125,1.584-.885,3.618-1.05,5.7-.11,1.387.245,3.209,2.426,3.382,5.453.431,12.888-11.539,24.49-10.621,6.247.495,10.784,4.94,10.318,12.078-1.248,15.748-16.071,18.96-16.856,28.865-.408,5.15,3.868,6.584,6.743,6.812,3.868.306,6.214-1.6,7.934-3.16,1.07-.912,1.926-1.642,2.72-1.579,1.388.109,2.222,2.169,1.962,5.437-.6,7.528-4.325,16.8-15.133,15.946-9.022-.714-12.993-6.012-12.31-14.628.769-9.706,7.559-16.046,8.378-27.642.563-5.836-1.5-8.789-7.746-9.283-8.131-.643-16.368,8.871-17.468,22.737-.982,12.38,11.834,19.373,11.48,23.831-.22,2.773-1.907,3.935-14.9,2.908-11.4-.9-12.821-1.911-12.584-4.882.408-5.15,10.357-12.337,11.205-23.033,1.029-12.974-8.208-27.358-7.752-33.1.22-2.773,2.007-3.928,3.792-3.787" transform="translate(-71.725 -19.256)" fill="#e849be"/>
    <path d="M409.319,67.315c2.937-24.064,11.739-30.5,24.773-28.912,4.245.517,11.1,3.454,15.84,4.031,5.037.613,6.842-1.87,8.718-1.641,2.863.349,3.543,4.635,3.013,8.975-.806,6.607-3.854,10.24-11.162,9.35-9.083-1.106-16.626-10.732-25.808-11.85-2.666-.325-5.474,1.335-5.967,5.379-1,8.185,9.985,13.427,18.377,14.448,7.9.962,12-2.243,13.973-2,1.284.156,1.9.832,1.662,2.8-1,8.185-2.786,12.973-8.513,12.275-8.392-1.021-11.89-10.956-22.257-12.218-3.147-.483-5.411,1.643-5.832,5.095-.855,7,5.451,15.277,16.41,16.612,13.33,1.623,18.288-6.982,22.534-6.465,1.875.229,2.746,2.136,2.288,5.884-1.264,10.355-11.933,15.662-23.09,14.3-18.958-2.308-27.642-14.075-24.958-36.067" transform="translate(-124.034 -11.613)" fill="#e849be"/>
    <path d="M428.292,143.467c1.553.687,2.529-.118,3.132.15.805.356.5,1.734.071,2.709-.943,2.126-2.222,3.07-4.263,2.167-2.587-1.145-4.574-5.115-6.874-6.133-1.321-.585-2.135-.223-2.543.7-1.108,2.5,3.56,6.005,5.2,6.731,2.444,1.082,3.742.557,4.4.85.4.177.6.576.235,1.408-.841,1.895-2.077,3.133-3.975,2.295-1.984-.878-2.8-4.537-4.555-5.315-.747-.33-1.337-.006-1.707.826-1.758,3.961,4.086,7.922,3.117,10.1-.241.545-.764.8-1.656.4-1.351-.6-3.057-1.559-4.708-2.255-1.438-.636-2.4-.957-3.229-1.326-.488-.216-.629-.519-.464-.892a1.362,1.362,0,0,1,.788-.614,5.938,5.938,0,0,0,3.47-2.861c1.719-3.876.784-8.823,1.917-11.378.9-2.039,2.644-2.472,4.828-1.505,1.868.827,4.744,3.027,6.813,3.942" transform="translate(-124.51 -42.293)" fill="#e849be"/>
    <path d="M441.744,155.708c-.58-7.639,1.75-10.178,5.887-10.491,1.348-.1,3.654.384,5.159.271,1.6-.121,2-1,2.6-1.047.909-.07,1.385,1.216,1.489,2.595.16,2.1-.561,3.411-2.88,3.587-2.884.218-5.818-2.3-8.733-2.078a1.71,1.71,0,0,0-1.517,2.036c.2,2.6,3.926,3.545,6.59,3.343,2.507-.191,3.579-1.436,4.207-1.483.407-.031.641.14.688.767.2,2.6-.061,4.192-1.878,4.33-2.665.2-4.364-2.661-7.655-2.412a1.606,1.606,0,0,0-1.492,1.939c.169,2.224,2.635,4.4,6.114,4.135,4.232-.32,5.236-3.294,6.584-3.4.6-.045.983.493,1.073,1.682.249,3.288-2.728,5.591-6.27,5.86-6.018.456-9.439-2.655-9.969-9.637" transform="translate(-133.989 -43.938)" fill="#e849be"/>
    <path d="M477.374,135.666c.554-.36.917-.145,1.26.381.838,1.291.968,4.089-.086,4.773-1.926,1.248-5.319-3.516-8.485-1.465a1.845,1.845,0,0,0-.541,2.746c2.379,3.662,11.349-2.262,15.062,3.455,1.813,2.792,1.335,6.21-2.965,9-5.434,3.521-8.2,2.206-9.431.308a3.212,3.212,0,0,1,.859-4.562c.633-.411,1.023-.214,1.505.3,1.325,1.463,3.366,2.124,6.769-.08,2.136-1.385,2.9-2.63,2.063-3.921-.855-1.318-2.3-1.17-5.5.122-5.015,2.09-8.742,3.045-10.984-.408-1.831-2.819-.726-6.08,2.756-8.337,3.535-2.289,6.086-1.248,7.721-2.307" transform="translate(-141.381 -41.215)" fill="#e849be"/>
    <path d="M497.476,127.921c2.187,1.177,4.1,1.533,4.923.013.925-1.714-.182-2.7-4.856-5.757-.9-.59-1-1.184-.826-1.515.388-.718,1.083-.416,2.839-.825,1.6-.387,2.366-.545,3.113-.143,3.154,1.7,2.74,5.972.934,9.315-2.343,4.34-4.9,6.031-8.22,4.242-4.068-2.191-4.411-9.228-7.039-10.644a1.066,1.066,0,0,0-1.62.484c-1.044,1.934,1.537,4.432.85,5.7a.783.783,0,0,1-1.179.4c-.277-.149-1.1-.736-1.684-1.05-.664-.358-1.612-.653-2.026-.877-.554-.3-.909-.633-.447-1.49.791-1.465,2.164-3.544,3.641-6.28,1.239-2.295,2.91-5.855,3.179-6.351.359-.663.855-.788,1.574-.4,1.771.955,3.772,4,3.175,5.1-.672,1.243-3.357.331-4.179,1.852-.925,1.713,2.562,5.376,7.847,8.223" transform="translate(-146.237 -34.23)" fill="#e849be"/>
</svg>
