<svg xmlns="http://www.w3.org/2000/svg" width="505.156" height="478.076" viewBox="0 0 505.156 478.076">
    <g id="Group_13" data-name="Group 13" transform="translate(-253.844 -139.495)">
        <path id="Path_28" data-name="Path 28" d="M750.654,556.436c18.477-39.264,4.518-88.133-24.623-120.289-8.856-9.772-19.33-18.921-23.432-31.455-12.2-37.3,38.428-74.576,24.916-111.418-8.425-22.974-37.509-31.405-50.4-52.2-8.83-14.24-8.756-31.99-10.821-48.618s-8.123-34.959-23.285-42.09c-27.579-12.972-54.252,20.019-83.828,27.374-33.168,8.25-64.26-16.757-96.33-28.572-26.656-9.82-46.9-14.946-71.994-1.629-16.622,8.823-30.346,30.364-29.644,48.907.757,20.069-1.338,45-19.1,55.115-27.253,15.516-40.323,50.27-42.571,78.575-1.864,23.462-.18,48.75-12.868,68.574-10.086,15.758-28.619,26.807-32.233,45.163-3.969,20.161,12.516,38.893,30.519,48.8s38.789,14.914,54.934,27.625c18.376,14.465,29.014,37.623,48.919,49.9,18.867,11.636,42.373,11.349,64.431,13.542,53.664,5.339,104.605,27.251,158.244,32.821S727.645,605.26,750.654,556.436Z" transform="translate(0 0)" fill="#6c0f53"/>
        <path id="Path_29" data-name="Path 29" d="M422.27,181.249c5.83,3.747,12.644,7.13,16.705,9.74,3.534,2.272,4.518,5.4,2.019,9.287-5.451,8.48-31.609-5.59-42.079,9.149-3.065,4.77-6.223,11.229-9.288,16-12.567,18.383-27.266,17.174-36.919,32.19-7.041,10.953-2.6,22.3,10.12,30.472,11.483,7.381,20.593,1.753,26.271-7.08,5.906-9.186,8.5-31.482,15.2-41.9,8.971-13.956,22.386-16.566,36.871-7.255,12.189,7.836,12.077,18.5,5.831,28.213-5.792,9.01-11.875,11.093-15.053,9.05-4.6-2.955-2.7-8.229-11.535-13.908-4.944-3.179-9.426-2.813-12.265,1.6-9.2,14.308,19.1,45.236,4.8,67.493-3.18,4.946-6.637,7.218-11.408,4.152-5.122-3.294-22.851-18.435-40.515-29.791-13.075-8.4-34.108-19.18-42.941-24.857-3.354-2.157-4.807-5.337-2.308-9.225,4.769-7.419,27.8-9.842,40.4-29.451,11.129-17.312,7.532-40.843,22.018-62.989,5.742-8.542,15.443-10.044,24.277-4.365C408.063,171.117,415.028,176.594,422.27,181.249Z" transform="translate(31.035 12.738)" fill="#e84abe"/>
        <path id="Path_30" data-name="Path 30" d="M476.236,225.9c10.374,12.948,5.318,50.633,20.156,69.154,6.17,7.7,15.354,9.763,26.009,1.227,18.847-15.1,17.484-40.65-.768-63.43-15.626-19.5-38.91-16.994-43.9-23.222-2.363-2.949-2.267-6.524,1.5-9.544,2.949-2.364,12.064-9.127,18.618-14.379,4.59-3.678,13.505-11.358,19.733-16.349,2.949-2.363,6-1.577,8.1,1.046,6.04,7.54-7.314,41.919,8.968,62.24,20.484,25.568,54.163,20.918,62.7,31.571,3.676,4.589,3.156,12-7.989,20.932-11.471,9.19-17.408,10.18-22.792,3.46-2.889-3.605-4.565-8.722-7.715-12.655-2.5-3.114-5.612-4.654-9.709-1.371-5.9,4.728-4.551,11.451-1.56,18.2,5.845,13.345,3.46,24.138-11.946,36.481-11.308,9.059-30.2,13.7-39.912,1.57-10.244-12.784-5.7-33.647-18.7-49.871-22.585-28.189-41.67-24.469-45.477-29.222-4.6-5.736-1.388-13.15,11.4-23.391C457.372,216.794,468.488,216.228,476.236,225.9Z" transform="translate(89.887 14.554)" fill="#e84abe"/>
        <path id="Path_31" data-name="Path 31" d="M323.369,267.405c3.9.836,7.834,2.536,11.943,3.416,4.97.849,9.869,1.04,13.362,1.787s4.4,3.52,3.608,7.216c-.7,3.284-2.858,7.334-3.782,11.646-.615,2.875-.378,6.791,4.139,7.759,11.293,2.417,30.181-20.6,54.208-15.456,12.936,2.771,21.2,13.344,18.237,28.173-6.991,32.651-38.905,35.267-43.3,55.8-2.287,10.679,6.265,14.872,12.219,16.146,8.01,1.716,13.45-1.631,17.484-4.418,2.492-1.614,4.488-2.905,6.131-2.553,2.873.615,4.046,5.162,2.6,11.938-3.34,15.607-13.722,34-36.1,29.21-18.686-4-25.524-16.2-21.7-34.068,4.309-20.125,20.282-31.524,25.22-55.594,2.8-12.071-.692-18.832-13.633-21.6-16.837-3.6-36.723,14.044-42.878,42.793-5.5,25.669,19.382,43.881,17.4,53.121-1.232,5.75-5.086,7.716-31.987,1.957-23.616-5.058-26.3-7.564-24.983-13.725,2.287-10.677,25.106-22.974,29.854-45.152,5.76-26.9-9.573-59.6-7.023-71.515C315.612,268.538,319.673,266.614,323.369,267.405Z" transform="translate(19.147 65.343)" fill="#e84abe"/>
        <path id="Path_32" data-name="Path 32" d="M463.53,371.959c-14.7-49.087-3.13-69,23.426-76.951,8.649-2.592,24.4-2.706,34.055-5.6,10.26-3.073,11.651-9.409,15.474-10.555,5.833-1.747,10.779,5.98,13.43,14.831,4.037,13.478,1.218,23.092-13.67,27.552-18.506,5.544-41.251-6.716-59.959-1.111-5.432,1.628-9.458,7.218-6.986,15.464,5,16.7,30.687,17.554,47.786,12.432,16.095-4.822,21.308-14.5,25.332-15.7,2.616-.783,4.386,0,5.591,4.027,5,16.7,5.6,27.478-6.067,30.974-17.1,5.122-32.28-11.157-53.4-4.829-6.5,1.728-9.074,7.76-6.965,14.8,4.279,14.284,23.486,24.972,45.814,18.284,27.158-8.135,29.46-28.994,38.112-31.585,3.82-1.144,7.119,1.812,9.409,9.458,6.327,21.122-9.813,40.426-32.546,47.237C503.735,432.257,476.969,416.82,463.53,371.959Z" transform="translate(103.964 71.16)" fill="#e84abe"/>
        <g id="Group_11" data-name="Group 11" transform="translate(566.083 470.133)">
            <path id="Path_33" data-name="Path 33" d="M500.741,388.54c3.112,1.784,5.331.3,6.542.995,1.611.925.677,3.753-.444,5.714-2.438,4.263-5.331,5.969-9.421,3.628-5.181-2.973-8.487-11.751-13.1-14.388-2.648-1.521-4.432-.937-5.491.9-2.867,5.012,6.166,13.4,9.45,15.283,4.893,2.808,7.736,1.985,9.057,2.746.809.461,1.143,1.341.184,3.012-2.175,3.8-5.044,6.135-8.843,3.956-3.977-2.278-4.893-10.147-8.407-12.159-1.5-.863-2.809-.31-3.764,1.362-4.554,7.943,6.853,17.541,4.344,21.916-.63,1.094-1.784,1.507-3.566.482-2.709-1.549-6.078-3.945-9.4-5.765-2.876-1.649-4.817-2.535-6.489-3.495-.979-.558-1.208-1.224-.78-1.974a2.9,2.9,0,0,1,1.788-1.119c2.914-.544,6.426-2.666,7.91-5.256,4.457-7.775,3.575-18.379,6.507-23.5,2.341-4.086,6.093-4.619,10.467-2.11C491.037,380.913,496.593,386.162,500.741,388.54Z" transform="translate(-460.416 -348.514)" fill="#e84abe"/>
            <path id="Path_34" data-name="Path 34" d="M491.257,407.112c.405-16.185,5.836-21.027,14.591-20.808,2.857.074,7.6,1.586,10.78,1.666,3.387.086,4.426-1.682,5.682-1.649,1.929.048,2.653,2.857,2.579,5.774-.112,4.445-1.9,7.054-6.814,6.932-6.1-.154-11.728-6.072-17.9-6.226-1.79-.045-3.549,1.239-3.614,3.956-.141,5.505,7.487,8.285,13.126,8.431,5.307.13,7.824-2.263,9.151-2.228.86.023,1.314.432,1.282,1.761-.139,5.505-1.016,8.8-4.864,8.706-5.64-.142-8.6-6.522-15.566-6.7-2.121-.122-3.486,1.436-3.543,3.759-.119,4.711,4.6,9.81,11.959,9.991,8.956.225,11.7-5.81,14.552-5.739,1.259.032,1.957,1.245,1.891,3.765-.174,6.964-6.915,11.176-14.411,10.989C497.4,429.174,490.882,421.906,491.257,407.112Z" transform="translate(-444.647 -343.886)" fill="#e84abe"/>
            <path id="Path_35" data-name="Path 35" d="M541.669,379.917c1.235-.638,1.956-.116,2.568,1.063,1.5,2.884,1.2,8.8-1.153,10.021-4.3,2.234-10.461-8.481-17.531-4.807a3.9,3.9,0,0,0-1.7,5.662c4.253,8.194,24.312-2.447,30.949,10.339,3.241,6.246,1.537,13.338-8.066,18.321-12.136,6.3-17.676,2.973-19.878-1.273a6.788,6.788,0,0,1,2.734-9.42c1.416-.738,2.193-.242,3.1.933,2.486,3.347,6.639,5.151,14.24,1.209,4.772-2.48,6.634-4.941,5.133-7.828-1.527-2.949-4.586-2.931-11.589-.863-10.966,3.372-18.991,4.622-23-3.094-3.279-6.3-.29-12.942,7.488-16.981C532.865,379.1,538.014,381.817,541.669,379.917Z" transform="translate(-431.895 -347.291)" fill="#e84abe"/>
            <path id="Path_36" data-name="Path 36" d="M565.366,392.135c4.364,2.911,8.322,4.036,10.345.995,2.284-3.424.151-5.726-9.071-13.07-1.77-1.418-1.88-2.692-1.436-3.35.957-1.437,2.355-.667,6.129-1.176,3.443-.5,5.083-.683,6.571.31,6.3,4.2,4.584,13.11.13,19.792-5.786,8.67-11.492,11.725-18.119,7.3-8.114-5.408-7.453-20.286-12.7-23.784a2.25,2.25,0,0,0-3.5.7c-2.58,3.865,2.355,9.63.661,12.168a1.655,1.655,0,0,1-2.56.606c-.552-.367-2.171-1.765-3.332-2.538-1.327-.889-3.259-1.7-4.084-2.246-1.106-.738-1.786-1.513-.647-3.224,1.953-2.928,5.25-7.03,8.9-12.5,3.056-4.581,7.272-11.742,7.936-12.742.883-1.324,1.951-1.492,3.389-.532,3.534,2.358,7.14,9.148,5.668,11.355-1.661,2.489-7.127.041-9.151,3.076C548.211,376.7,554.817,385.1,565.366,392.135Z" transform="translate(-423.201 -358.239)" fill="#e84abe"/>
        </g>
        <path id="Path_37" data-name="Path 37" d="M498.593,394.75c-2.31-11.318-5.5-17.525-15.792-15.425-.3.06-.786.2-1.416.4h0c-24.683,7.7-48.02,3.369-56.232,1.371a16.087,16.087,0,0,0-3.12-.839c-2.881-.354-4.584.707-5.1,4.876-2.127,17.3-.748,28.05,12.1,29.628a13.991,13.991,0,0,0,9.606-1.846,1.693,1.693,0,0,0,.425-.017c.092-.162.186-.311.278-.472,7.81-5.623,9.967-18.917,25.682-19.722,11.474,1.962,19.744,18.338,22.1,29.892,2.1,10.289-4.578,19.58-18.364,22.393-29.838,6.087-69.969-8.874-78.406-50.233-3.526-17.283,5.68-27.844,13.858-33.71,0,0,17.479-13.032,29.418-7.565,1.658,1.185,3.286,2.477,4.9,3.8.163.195.333.375.491.583l-.2-.342c8.372,6.894,16.5,14.623,26.967,13.341,15.427-1.889,19.825-10.891,18.116-24.856-1.121-9.173-4.7-17.621-10.739-16.882-3.962.485-6.4,6.5-17.032,7.8-10,1.224-25.549-1.315-34.51-.219a52.762,52.762,0,0,0-14.316,3.635,27.217,27.217,0,0,0-7.063,3.989,32.188,32.188,0,0,0-6.861,6.79c-11.6,14.378-18.971,40.107-13.109,68.838,7.808,38.272,26.555,60.81,73.468,51.239C491.815,463.432,505.476,428.493,498.593,394.75Z" transform="translate(63.623 96.98)" fill="#e84abe"/>
        <g id="Group_12" data-name="Group 12" transform="translate(448.465 275.545)">
            <path id="Path_38" data-name="Path 38" d="M495.932,305.8c12.056-35.917-2.257-59.418-13.389-63.155-5.251-1.762-13.028-1.569-19.54-3.755-3.99-1.339-12.806-7.1-16.8-8.443-14.282-4.795-37.43,8.469-49.486,44.385-7.757,23.105-4.231,45.322-8.108,56.873-1.341,3.992-4.507,10.641-5.354,13.161-3.808,11.343,9.21,18.518,32.313,26.273,30.876,10.365,42.3,8.356,45.685-1.726,2.186-6.512,2.054-10.3,4.24-16.807C470.148,338.746,489.869,323.863,495.932,305.8Zm-53.431-.673c2.282-.732,2.242.29,1.489,2.009-3.085,7.47-3.987,15.428-4.544,23.3a10.8,10.8,0,0,1-.771,3.034c-1.929,4.353-5.859,8.351-6.4,13.261a8.959,8.959,0,0,0,.493,3.284c2.075,6.208,5.751,11.4,10.068,16.2.357.464.979,1.081,1.014,1.516l0,.057c-.024.218-.358.193-.893-.079a19.977,19.977,0,0,1-4.113-3.517c-5.957-5.213-7.471-13.487-11.445-19.911a18.875,18.875,0,0,0-3.008-3.345c-8.451-7.778-11.808-19.573-11.829-30.944.254-3.286,1.333-1.037,2.514-.054a.165.165,0,0,0,.213-.1,7.107,7.107,0,0,0,.067-2.062c-1.2-29.575,21.65-56.3,51.359-57.771,2.412.227-.532,2.275.128,2.985.325.257,1.265-.065,1.773-.119,5.928-1.242,11.471,1.037,14.007,4.934,5.127,7.805-4.048,16.016-11.089,19.228-8.652,3.847-16.438,10.126-21.226,18.45a19.522,19.522,0,0,1-2.263,3.3c-1.944,2.353-5.386,3.817-7.131,6.262C440.84,305.646,441.836,305.271,442.5,305.128Z" transform="translate(-382.602 -229.503)" fill="#e84abe"/>
            <path id="Path_39" data-name="Path 39" d="M411.267,313.409c-2.54-25.655,15.238-54.312,34.956-61.481C423.243,257.078,405.482,288.495,411.267,313.409Z" transform="translate(-368.503 -218.032)" fill="#e84abe"/>
        </g>
    </g>
</svg>
